TITLE:

The Sweeney 2012 DVDSCR AC3 XViD - INSPiRAL

IMDB:
 
http://www.imdb.com/title/tt0857190/


SOURCES:

VIDEO -  SWEENEY 2012 VOBS THANKS
AUDIO -  SWEENEY 2012 VOBS THANKS
SUBS  - None Add

STATS:

Video
ID                                       : 0
Format                                   : MPEG-4 Visual
Format profile                           : Advanced Simple@L5
Format settings, BVOP                    : 2
Format settings, QPel                    : No
Format settings, GMC                     : No warppoints
Format settings, Matrix                  : Default (MPEG)
Muxing mode                              : Packed bitstream
Codec ID                                 : XVID
Codec ID/Hint                            : XviD
Duration                                 : 1h 47mn
Bit rate                                 : 2 460 Kbps
Width                                    : 720 pixels
Height                                   : 304 pixels
Display aspect ratio                     : 2.35:1
Frame rate                               : 25.000 fps
Color space                              : YUV
Chroma subsampling                       : 4:2:0
Bit depth                                : 8 bits
Scan type                                : Progressive
Compression mode                         : Lossy
Bits/(Pixel*Frame)                       : 0.450
Stream size                              : 1.85 GiB (90%)
Writing library                          : XviD 64

Audio
ID                                       : 1
Format                                   : AC-3
Format/Info                              : Audio Coding 3
Mode extension                           : CM (complete main)
Codec ID                                 : 2000
Duration                                 : 1h 47mn
Bit rate mode                            : Constant
Bit rate                                 : 256 Kbps
Channel(s)                               : 2 channels
Channel positions                        : Front: L R
Sampling rate                            : 48.0 KHz
Bit depth                                : 16 bits
Compression mode                         : Lossy
Stream size                              : 197 MiB (9%)
Alignment                                : Aligned on interleaves
Interleave, duration                     : 40 ms (1.00 video frame)
Interleave, preload duration             : 512 ms




NOTES:

Video ....dam nice to get this out so soon,top work to whoever ;-)
The video itself was pretty nice,just thought the colouring needed some lovin aswell as the brightness/contrast levels.
Audio was some nice AC3 256 and needs no work,imho.


WORKDONE:

Took the vobs and first off was to crop and resize,then i noticed a faint line across the 2 so cropped an extra 2 pixels to remove that,
then increased the contrast,changed the rgb colours to balance them out better,of course in my opinion that is. And finally added some sharpness to it.
Audio was a straight forward remux,no work done to it.


Enjoy folks :)


SCREENS:
 
http://s19.postimage.org/u92e91yyr/va9_J4.png 
http://s19.postimage.org/6jcykd0lf/UPQl_I.png 
http://s19.postimage.org/6xeajykoz/7_WVM.png 
http://s19.postimage.org/vrxse15j7/Qj_Cds.png 
http://s19.postimage.org/5857bw4zn/pzd64.png 
http://s19.postimage.org/4jwcsy69v/CLSA5.png 
http://s19.postimage.org/putwx7oeb/fd_Em.png

GREETZ:

Past,Present,future and thanks Meggafast
